# Blender v2.79 (sub 0) OBJ File: 'city.blend'
# www.blender.org
mtllib city.mtl
o Archway_Cube.007
v -161.393723 705.742737 2071.483887
v -161.393723 371.361267 2071.483887
v -161.393723 705.742737 2821.049316
v -161.393723 371.361267 2821.049316
v -495.775208 705.742737 2071.483887
v -495.775208 371.361267 2071.483887
v -495.775208 705.742737 2821.049316
v -495.775208 371.361267 2821.049316
v -161.393723 860.204468 2577.063232
v -161.393723 525.822937 2577.063232
v -495.775208 860.204468 2577.063232
v -495.775208 525.822937 2577.063232
v -161.393723 860.204468 2315.934814
v -495.775208 525.822937 2315.934814
v -161.393723 525.822937 2315.934814
v -495.775208 860.204468 2315.934814
vn -1.0000 0.0000 0.0000
vn 0.0000 0.0000 -1.0000
vn 1.0000 0.0000 0.0000
vn 0.0000 0.0000 1.0000
vn 0.0000 -0.8454 0.5342
vn 0.0000 0.8454 -0.5342
vn 0.0000 0.8449 0.5349
vn 0.0000 -0.8449 -0.5349
vn 0.0000 1.0000 0.0000
vn 0.0000 -1.0000 0.0000
usemtl None
s off
f 9//1 10//1 4//1 3//1
f 3//2 4//2 8//2 7//2
f 16//3 14//3 6//3 5//3
f 5//4 6//4 2//4 1//4
f 13//5 16//5 5//5 1//5
f 14//6 15//6 2//6 6//6
f 8//7 4//7 10//7 12//7
f 3//8 7//8 11//8 9//8
f 7//3 8//3 12//3 11//3
f 13//1 15//1 10//1 9//1
f 1//1 2//1 15//1 13//1
f 12//9 10//9 15//9 14//9
f 9//10 11//10 16//10 13//10
f 11//3 12//3 14//3 16//3
o Building_Cube.001
v -3041.251953 41.284203 -3157.836670
v -3041.251953 2041.284058 -3157.836670
v -3041.251953 41.284203 -3857.836670
v -3041.251953 2041.284058 -3857.836670
v -2341.251953 41.284203 -3157.836670
v -2341.251953 2041.284058 -3157.836670
v -2341.251953 41.284203 -3857.836670
v -2341.251953 2041.284058 -3857.836670
vn -1.0000 0.0000 0.0000
vn 0.0000 0.0000 -1.0000
vn 1.0000 0.0000 0.0000
vn 0.0000 0.0000 1.0000
vn 0.0000 -1.0000 0.0000
vn 0.0000 1.0000 0.0000
usemtl None
s off
f 17//11 18//11 20//11 19//11
f 19//12 20//12 24//12 23//12
f 23//13 24//13 22//13 21//13
f 21//14 22//14 18//14 17//14
f 19//15 23//15 21//15 17//15
f 24//16 20//16 18//16 22//16
o Ground_Plane
v -4096.000000 0.000000 4096.000000
v 4096.000000 0.000000 4096.000000
v -4096.000000 0.000000 -4096.000000
v 4096.000000 0.000000 -4096.000000
v -4096.000000 0.000000 0.000000
v 0.000000 0.000000 4096.000000
v 4096.000000 0.000000 0.000000
v 0.000000 0.000000 -4096.000000
v 0.000000 0.000000 0.000000
v -4096.000000 0.000000 2048.000000
v 2048.000000 0.000000 4096.000000
v 4096.000000 0.000000 -2048.000000
v -2048.000000 0.000000 -4096.000000
v -4096.000000 0.000000 -2048.000000
v -2048.000000 0.000000 4096.000000
v 4096.000000 0.000000 2048.000000
v 2048.000000 0.000000 -4096.000000
v -4096.000000 56.767212 0.000000
v -4096.000000 56.767212 -1024.000000
v -2048.000000 0.000000 0.000000
v 2048.000000 0.000000 0.000000
v 2048.000000 0.000000 2048.000000
v -2048.000000 0.000000 2048.000000
v -2048.000000 0.000000 -2048.000000
v 2048.000000 0.000000 -2048.000000
v -4096.000000 0.000000 3072.000000
v 3072.000000 0.000000 4096.000000
v 4096.000000 0.000000 -3072.000000
v -3072.000000 0.000000 -4096.000000
v -4096.000000 0.000000 -1024.000000
v -1024.000000 0.000000 4096.000000
v 4096.000000 0.000000 1024.000000
v 1024.000000 0.000000 -4096.000000
v -4096.000000 56.767212 -4096.000000
v 0.000000 0.000000 1024.000000
v -3072.000000 56.767212 -4096.000000
v 1024.000000 0.000000 0.000000
v -4096.000000 0.000000 1024.000000
v 1024.000000 0.000000 4096.000000
v 4096.000000 0.000000 -1024.000000
v -1024.000000 0.000000 -4096.000000
v -4096.000000 0.000000 -3072.000000
v -3072.000000 0.000000 4096.000000
v 4096.000000 0.000000 3072.000000
v 3072.000000 0.000000 -4096.000000
v 0.000000 0.000000 -1024.000000
v 4096.000000 56.767212 -4096.000000
v -1024.000000 0.000000 0.000000
v 4096.000000 56.767212 -3072.000000
v 2048.000000 0.000000 1024.000000
v 2048.000000 0.000000 3072.000000
v 1024.000000 0.000000 2048.000000
v 3072.000000 0.000000 2048.000000
v -2048.000000 0.000000 1024.000000
v -2048.000000 0.000000 3072.000000
v -3072.000000 0.000000 2048.000000
v -1024.000000 0.000000 2048.000000
v -2048.000000 0.000000 -3072.000000
v -2048.000000 0.000000 -1024.000000
v -3072.000000 0.000000 -2048.000000
v -1024.000000 0.000000 -2048.000000
v 2048.000000 0.000000 -3072.000000
v 2048.000000 0.000000 -1024.000000
v 1024.000000 0.000000 -2048.000000
v 3072.000000 0.000000 -2048.000000
v 3072.000000 0.000000 -1024.000000
v 1024.000000 0.000000 -1024.000000
v 1024.000000 0.000000 -3072.000000
v -1024.000000 0.000000 -1024.000000
v -3072.000000 0.000000 -1024.000000
v 4096.000000 56.767212 4096.000000
v -1024.000000 0.000000 3072.000000
v 3072.000000 56.767212 4096.000000
v -3072.000000 0.000000 1024.000000
v -4096.000000 56.767212 4096.000000
v 1024.000000 0.000000 3072.000000
v 1024.000000 0.000000 1024.000000
v 3072.000000 0.000000 1024.000000
v -1024.000000 0.000000 1024.000000
v -1024.000000 0.000000 -3072.000000
v -4096.000000 56.767212 3072.000000
v -4096.000000 0.000000 3072.000000
v -4096.000000 0.000000 4096.000000
v 3072.000000 0.000000 4096.000000
v 4096.000000 0.000000 4096.000000
v 4096.000000 0.000000 -3072.000000
v 4096.000000 0.000000 -4096.000000
v -3072.000000 0.000000 -4096.000000
v -4096.000000 0.000000 -4096.000000
v -4096.000000 0.000000 -1024.000000
v -4096.000000 0.000000 0.000000
v -1024.000000 0.000000 4096.000000
v 0.000000 0.000000 4096.000000
v 4096.000000 0.000000 1024.000000
v 4096.000000 0.000000 0.000000
v 1024.000000 0.000000 -4096.000000
v 0.000000 0.000000 -4096.000000
v -4096.000000 0.000000 -3072.000000
v -4096.000000 0.000000 -2048.000000
v -3072.000000 0.000000 4096.000000
v -2048.000000 0.000000 4096.000000
v 4096.000000 0.000000 3072.000000
v 4096.000000 0.000000 2048.000000
v 3072.000000 0.000000 -4096.000000
v 2048.000000 0.000000 -4096.000000
v 0.000000 0.000000 -1024.000000
v -3686.318604 16.862127 -3589.727051
v -3686.318604 14.862127 -3589.727051
v -3686.318604 16.862127 -3587.727051
v -3686.318604 14.862127 -3587.727051
v 2048.000000 0.000000 0.000000
v 2048.000000 0.000000 1024.000000
v 2048.000000 0.000000 3072.000000
v 2048.000000 0.000000 2048.000000
v 1024.000000 0.000000 2048.000000
v 3072.000000 0.000000 2048.000000
v -2048.000000 0.000000 1024.000000
v -2048.000000 0.000000 0.000000
v -2048.000000 0.000000 3072.000000
v -2048.000000 0.000000 2048.000000
v -3072.000000 0.000000 2048.000000
v -4096.000000 0.000000 2048.000000
v -2048.000000 0.000000 -3072.000000
v -2048.000000 0.000000 -4096.000000
v -3072.000000 0.000000 -2048.000000
v 2048.000000 0.000000 -3072.000000
v 1024.000000 0.000000 -2048.000000
v 3072.000000 0.000000 -2048.000000
v 2048.000000 0.000000 -2048.000000
v 2048.000000 0.000000 4096.000000
v 4096.000000 0.000000 -2048.000000
v 0.000000 0.000000 1024.000000
v -4096.000000 0.000000 1024.000000
v 1024.000000 0.000000 4096.000000
v 4096.000000 0.000000 -1024.000000
v -1024.000000 0.000000 -4096.000000
v -1024.000000 0.000000 2048.000000
v -2048.000000 0.000000 -2048.000000
v -2048.000000 0.000000 -1024.000000
v -1024.000000 0.000000 -2048.000000
v 2048.000000 0.000000 -1024.000000
v 3072.000000 0.000000 -1024.000000
v 1024.000000 0.000000 -1024.000000
v 1024.000000 0.000000 -3072.000000
v -1024.000000 0.000000 -1024.000000
v -3072.000000 0.000000 -1024.000000
v -3688.318604 16.862127 -3589.727051
v -1024.000000 0.000000 3072.000000
v -3688.318604 14.862127 -3589.727051
v -3072.000000 0.000000 1024.000000
v -3688.318604 16.862127 -3587.727051
v 1024.000000 0.000000 3072.000000
v 1024.000000 0.000000 1024.000000
v 3072.000000 0.000000 1024.000000
v -1024.000000 0.000000 1024.000000
v -1024.000000 0.000000 -3072.000000
v -3688.318604 14.862127 -3587.727051
v -1024.000000 56.767212 4096.000000
v 0.000000 56.767212 4096.000000
v 4096.000000 56.767212 1024.000000
v 4096.000000 56.767212 0.000000
v 1024.000000 56.767212 -4096.000000
v 0.000000 56.767212 -4096.000000
v 0.000000 56.767212 -3072.000000
v -3072.000000 56.767212 0.000000
v -4096.000000 56.767212 -3072.000000
v -4096.000000 56.767212 -2048.000000
v -3072.000000 56.767212 4096.000000
v -2048.000000 56.767212 4096.000000
v 4096.000000 56.767212 3072.000000
v 4096.000000 56.767212 2048.000000
v 3072.000000 56.767212 -4096.000000
v 2048.000000 56.767212 -4096.000000
v 0.000000 56.767212 -1024.000000
v 0.000000 56.767212 -2048.000000
v 0.000000 56.767212 3072.000000
v 0.000000 56.767212 2048.000000
v 3072.000000 56.767212 0.000000
v 2048.000000 56.767212 0.000000
v 2048.000000 56.767212 1024.000000
v 2048.000000 56.767212 3072.000000
v 2048.000000 56.767212 2048.000000
v 1024.000000 56.767212 2048.000000
v 3072.000000 56.767212 2048.000000
v -2048.000000 56.767212 1024.000000
v -2048.000000 56.767212 0.000000
v -2048.000000 56.767212 3072.000000
v -2048.000000 56.767212 2048.000000
v -3072.000000 56.767212 2048.000000
v -4096.000000 56.767212 2048.000000
v -2048.000000 56.767212 -3072.000000
v -2048.000000 56.767212 -4096.000000
v -3072.000000 56.767212 -2048.000000
v 2048.000000 56.767212 -3072.000000
v 1024.000000 56.767212 -2048.000000
v 3072.000000 56.767212 -2048.000000
v 2048.000000 56.767212 -2048.000000
v 2048.000000 56.767212 4096.000000
v 4096.000000 56.767212 -2048.000000
v 0.000000 56.767212 1024.000000
v -4096.000000 56.767212 1024.000000
v 1024.000000 56.767212 4096.000000
v 4096.000000 56.767212 -1024.000000
v -1024.000000 56.767212 -4096.000000
v -1024.000000 56.767212 2048.000000
v -2048.000000 56.767212 -2048.000000
v -2048.000000 56.767212 -1024.000000
v -1024.000000 56.767212 -2048.000000
v 2048.000000 56.767212 -1024.000000
v 3072.000000 56.767212 -1024.000000
v 1024.000000 56.767212 -1024.000000
v 1024.000000 56.767212 -3072.000000
v -1024.000000 56.767212 -1024.000000
v -3072.000000 56.767212 -1024.000000
v -3072.000000 56.767212 -3072.000000
v -1024.000000 56.767212 3072.000000
v -3072.000000 56.767212 3072.000000
v -3072.000000 56.767212 1024.000000
v 3072.000000 56.767212 3072.000000
v 1024.000000 56.767212 3072.000000
v 1024.000000 56.767212 1024.000000
v 3072.000000 56.767212 1024.000000
v -1024.000000 56.767212 1024.000000
v -1024.000000 56.767212 -3072.000000
v 3072.000000 56.767212 -3072.000000
vn 0.0000 0.0000 1.0000
vn 0.0000 1.0000 0.0000
vn 1.0000 0.0000 0.0000
vn -1.0000 0.0000 0.0000
vn 0.0000 0.0000 -1.0000
vn 0.0000 -1.0000 0.0000
usemtl None
s off
f 30//17 63//17 158//17 117//17
f 89//17 36//17 155//17 152//17
f 103//18 59//18 33//18 72//18
f 96//17 55//17 116//17 172//17
f 101//18 74//18 45//18 61//18
f 100//18 75//18 46//18 76//18
f 50//17 25//17 107//17 106//17
f 102//17 56//17 118//17 178//17
f 29//17 62//17 157//17 115//17
f 81//17 96//17 172//17 161//17
f 74//17 102//17 178//17 136//17
f 94//18 83//18 48//18 84//18
f 46//17 75//17 137//17 138//17
f 92//18 86//18 41//18 57//18
f 91//18 87//18 49//18 88//18
f 90//18 64//18 36//18 89//18
f 87//18 90//18 89//18 49//18
f 87//17 45//17 135//17 165//17
f 45//17 74//17 136//17 135//17
f 86//17 49//17 153//17 150//17
f 33//18 61//18 91//18 70//18
f 61//18 45//18 87//18 91//18
f 84//17 48//17 162//17 149//17
f 101//17 59//17 156//17 177//17
f 88//18 49//18 86//18 92//18
f 83//18 93//18 85//18 48//18
f 44//18 72//18 93//18 83//18
f 72//18 33//18 70//18 93//18
f 54//18 94//18 84//18 38//18
f 44//17 83//17 163//17 142//17
f 83//17 94//17 170//17 163//17
f 76//17 101//17 177//17 139//17
f 48//17 82//17 147//17 162//17
f 94//17 54//17 114//17 170//17
f 79//18 96//18 81//18 47//18
f 39//18 55//18 96//18 79//18
f 69//17 41//17 129//17 128//17
f 68//17 40//17 127//17 126//17
f 47//17 80//17 145//17 144//17
f 67//17 39//17 125//17 124//17
f 37//17 53//17 112//17 148//17
f 34//18 80//18 98//18 62//18
f 80//18 47//18 78//18 98//18
f 39//17 79//17 143//17 125//17
f 93//17 70//17 130//17 169//17
f 63//17 100//17 176//17 158//17
f 66//17 38//17 123//17 122//17
f 36//17 52//17 110//17 155//17
f 63//18 35//18 75//18 100//18
f 59//18 101//18 61//18 33//18
f 100//17 76//17 139//17 176//17
f 76//18 46//18 74//18 101//18
f 35//17 51//17 108//17 154//17
f 46//18 77//18 102//18 74//18
f 77//18 40//18 56//18 102//18
f 78//18 103//18 72//18 44//18
f 47//18 81//18 103//18 78//18
f 40//17 77//17 140//17 127//17
f 82//18 104//18 65//18 37//18
f 48//18 85//18 104//18 82//18
f 34//17 50//17 106//17 146//17
f 85//17 93//17 169//17 164//17
f 49//17 89//17 152//17 153//17
f 75//17 35//17 154//17 137//17
f 119//19 159//19 227//19 185//19
f 151//19 168//19 236//19 219//19
f 158//19 176//19 244//19 226//19
f 124//17 125//17 193//17 192//17
f 117//17 158//17 226//17 183//17
f 168//19 120//19 186//19 236//19
f 176//19 139//19 207//19 244//19
f 122//20 123//20 191//20 190//20
f 115//20 157//20 225//20 42//20
f 130//17 167//17 235//17 198//17
f 167//19 151//19 219//19 235//19
f 159//21 166//21 234//21 227//21
f 120//21 121//21 187//21 186//21
f 166//21 165//21 233//21 234//21
f 118//19 119//19 185//19 184//19
f 148//21 112//21 60//21 216//21
f 174//17 141//17 209//17 242//17
f 116//17 117//17 183//17 182//17
f 155//19 110//19 73//19 223//19
f 152//17 155//17 223//17 220//17
f 157//17 174//17 242//17 225//17
f 114//20 115//20 42//20 43//20
f 154//17 108//17 97//17 222//17
f 165//20 135//20 203//20 233//20
f 112//21 113//21 58//21 60//21
f 146//20 106//20 105//20 214//20
f 150//20 153//20 221//20 218//20
f 110//19 111//19 71//19 73//19
f 153//17 152//17 220//17 221//17
f 108//17 109//17 95//17 97//17
f 149//17 162//17 230//17 217//17
f 106//20 107//20 99//20 105//20
f 129//20 150//20 218//20 197//20
f 142//19 163//19 231//19 210//19
f 123//17 149//17 217//17 191//17
f 162//19 147//19 215//19 230//19
f 77//17 46//17 138//17 140//17
f 51//17 26//17 109//17 108//17
f 31//17 64//17 159//17 119//17
f 78//17 44//17 142//17 141//17
f 103//17 81//17 161//17 179//17
f 52//17 28//17 111//17 110//17
f 32//17 65//17 160//17 121//17
f 79//17 47//17 144//17 143//17
f 53//17 27//17 113//17 112//17
f 90//17 87//17 165//17 166//17
f 27//17 66//17 122//17 113//17
f 80//17 34//17 146//17 145//17
f 59//17 103//17 179//17 156//17
f 54//17 29//17 115//17 114//17
f 64//17 90//17 166//17 159//17
f 25//17 67//17 124//17 107//17
f 65//17 104//17 180//17 160//17
f 55//17 30//17 117//17 116//17
f 91//17 88//17 151//17 167//17
f 26//17 68//17 126//17 109//17
f 82//17 37//17 148//17 147//17
f 104//17 85//17 164//17 180//17
f 56//17 31//17 119//17 118//17
f 28//17 69//17 128//17 111//17
f 57//17 32//17 121//17 120//17
f 70//17 91//17 167//17 130//17
f 38//17 84//17 149//17 123//17
f 62//17 98//17 174//17 157//17
f 92//17 57//17 120//17 168//17
f 41//17 86//17 150//17 129//17
f 98//17 78//17 141//17 174//17
f 88//17 92//17 168//17 151//17
f 249//18 73//18 71//18 196//18
f 248//18 188//18 187//18 228//18
f 246//18 184//18 185//18 202//18
f 243//18 194//18 195//18 208//18
f 242//18 209//18 210//18 189//18
f 241//18 211//18 212//18 213//18
f 240//18 200//18 201//18 229//18
f 239//18 215//18 216//18 60//18
f 237//18 198//18 199//18 232//18
f 203//18 202//18 234//18 233//18
f 202//18 185//18 227//18 234//18
f 198//18 235//18 219//18 199//18
f 188//18 236//18 186//18 187//18
f 199//18 219//18 236//18 188//18
f 42//18 189//18 238//18 43//18
f 189//18 210//18 231//18 238//18
f 190//18 239//18 60//18 58//18
f 191//18 217//18 239//18 190//18
f 217//18 230//18 215//18 239//18
f 182//18 183//18 200//18 240//18
f 105//18 241//18 213//18 214//18
f 99//18 192//18 241//18 105//18
f 192//18 193//18 211//18 241//18
f 225//18 242//18 189//18 42//18
f 205//18 243//18 208//18 206//18
f 222//18 97//18 243//18 205//18
f 97//18 95//18 194//18 243//18
f 200//18 244//18 207//18 201//18
f 183//18 226//18 244//18 200//18
f 201//18 207//18 245//18 224//18
f 204//18 246//18 202//18 203//18
f 229//18 201//18 224//18 247//18
f 232//18 199//18 188//18 248//18
f 218//18 249//18 196//18 197//18
f 221//18 220//18 249//18 218//18
f 220//18 223//18 73//18 249//18
f 126//19 127//19 195//19 194//19
f 121//21 160//21 228//21 187//21
f 128//21 129//21 197//21 196//21
f 139//19 177//19 245//19 207//19
f 164//20 169//20 237//20 232//20
f 113//20 122//20 190//20 58//20
f 177//21 156//21 224//21 245//21
f 169//17 130//17 198//17 237//17
f 107//17 124//17 192//17 99//17
f 109//19 126//19 194//19 95//19
f 136//17 178//17 246//17 204//17
f 170//21 114//21 43//21 238//21
f 111//21 128//21 196//21 71//21
f 135//20 136//20 204//20 203//20
f 178//17 118//17 184//17 246//17
f 163//21 170//21 238//21 231//21
f 138//20 137//20 205//20 206//20
f 179//20 161//20 229//20 247//20
f 156//21 179//21 247//21 224//21
f 137//20 154//20 222//20 205//20
f 140//21 138//21 206//21 208//21
f 160//20 180//20 248//20 228//20
f 127//21 140//21 208//21 195//21
f 141//19 142//19 210//19 209//19
f 180//20 164//20 232//20 248//20
f 125//19 143//19 211//19 193//19
f 143//19 144//19 212//19 211//19
f 161//20 172//20 240//20 229//20
f 144//21 145//21 213//21 212//21
f 145//21 146//21 214//21 213//21
f 172//20 116//20 182//20 240//20
f 147//19 148//19 216//19 215//19
f 181//20 175//20 171//20 173//20
f 173//21 171//21 131//21 132//21
f 132//19 131//19 133//19 134//19
f 134//17 133//17 175//17 181//17
f 173//22 132//22 134//22 181//22
f 131//18 171//18 175//18 133//18
o Building.001_Cube.002
v -560.878906 41.284203 -2884.588623
v -560.878906 41.284203 -3584.588623
v -560.878906 2041.284058 -3584.588623
v 139.121063 41.284203 -2884.588623
v 139.121063 41.284203 -3584.588623
v 139.121063 2041.284058 -3584.588623
v -560.878906 41.284203 -3075.498047
v -560.878906 2041.284058 -3075.498047
v 139.121063 41.284203 -3075.498047
v 139.121063 2041.284058 -3075.498047
v -560.878906 1032.084229 -2884.588623
v -560.878906 1032.084229 -3584.588623
v 139.121063 1032.084229 -3584.588623
v 139.121063 1032.084229 -2884.588623
v 139.121063 1032.084229 -3075.498047
v -560.878906 1032.084229 -3075.498047
vn -1.0000 0.0000 0.0000
vn 0.0000 0.0000 -1.0000
vn 0.0000 -1.0000 0.0000
vn 0.0000 0.0000 1.0000
vn 0.0000 1.0000 0.0000
vn 1.0000 0.0000 0.0000
usemtl None
s off
f 265//23 257//23 252//23 261//23
f 261//24 252//24 255//24 262//24
f 256//25 258//25 253//25 250//25
f 264//26 259//26 257//26 265//26
f 255//27 252//27 257//27 259//27
f 251//25 254//25 258//25 256//25
f 262//28 255//28 259//28 264//28
f 265//27 260//27 263//27 264//27
f 250//23 260//23 265//23 256//23
f 254//28 262//28 264//28 258//28
f 253//26 263//26 260//26 250//26
f 258//28 264//28 263//28 253//28
f 251//24 261//24 262//24 254//24
f 256//23 265//23 261//23 251//23
o Building.002_Cube.003
v -3916.669189 41.284203 -3110.888184
v -3916.669189 2041.284058 -3110.888184
v -3916.669189 41.284203 -3810.888184
v -3916.669189 2041.284058 -3810.888184
v -3216.669189 41.284203 -3110.888184
v -3216.669189 2041.284058 -3110.888184
v -3216.669189 41.284203 -3810.888184
v -3216.669189 2041.284058 -3810.888184
vn -1.0000 0.0000 0.0000
vn 0.0000 0.0000 -1.0000
vn 1.0000 0.0000 0.0000
vn 0.0000 0.0000 1.0000
vn 0.0000 -1.0000 0.0000
vn 0.0000 1.0000 0.0000
usemtl None
s off
f 266//29 267//29 269//29 268//29
f 268//30 269//30 273//30 272//30
f 272//31 273//31 271//31 270//31
f 270//32 271//32 267//32 266//32
f 268//33 272//33 270//33 266//33
f 273//34 269//34 267//34 271//34
o Building.003_Cube.004
v -560.878906 41.284203 -1374.093750
v 80.789757 1126.858765 -2015.762451
v -560.878906 41.284203 -2074.093750
v 80.789757 1126.858765 -1432.424927
v 139.121063 41.284203 -1374.093750
v -502.547638 1126.858765 -2015.762451
v 139.121063 41.284203 -2074.093750
v -502.547638 1126.858765 -1432.424927
v -560.878906 1126.858765 -1374.093750
v -560.878906 1126.858765 -2074.093750
v 139.121063 1126.858765 -2074.093750
v 139.121063 1126.858765 -1374.093750
v -560.878906 1126.858765 -1374.093750
v -560.878906 1126.858765 -2074.093750
v 139.121063 1126.858765 -2074.093750
v 139.121063 1126.858765 -1374.093750
v 80.789757 1547.612061 -2015.762451
v 80.789757 1547.612061 -1432.424927
v -502.547638 1547.612061 -1432.424927
v -502.547638 1547.612061 -2015.762451
vn -1.0000 0.0000 0.0000
vn 0.0000 0.0000 -1.0000
vn 1.0000 0.0000 0.0000
vn 0.0000 0.0000 1.0000
vn 0.0000 -1.0000 0.0000
vn 0.0000 1.0000 0.0000
usemtl None
s off
f 274//35 282//35 283//35 276//35
f 276//36 283//36 284//36 280//36
f 280//37 284//37 285//37 278//37
f 278//38 285//38 282//38 274//38
f 276//39 280//39 278//39 274//39
f 275//36 279//36 293//36 290//36
f 286//38 287//38 283//38 282//38
f 287//38 288//38 284//38 283//38
f 288//38 289//38 285//38 284//38
f 289//38 286//38 282//38 285//38
f 275//40 277//40 287//40 286//40
f 277//40 281//40 288//40 287//40
f 281//40 279//40 289//40 288//40
f 279//40 275//40 286//40 289//40
f 292//40 291//40 290//40 293//40
f 281//38 277//38 291//38 292//38
f 279//35 281//35 292//35 293//35
f 277//37 275//37 290//37 291//37
o Building.004_Cube.005
v -643.122803 41.284203 2091.322998
v -1.454139 1126.858765 1449.654297
v -643.122803 41.284203 1391.323120
v -1.454139 1126.858765 2032.991821
v 56.877178 41.284203 2091.322998
v -584.791504 1126.858765 1449.654297
v 56.877178 41.284203 1391.323120
v -584.791504 1126.858765 2032.991821
v -643.122803 1126.858765 2091.322998
v -643.122803 1126.858765 1391.323120
v 56.877178 1126.858765 1391.323120
v 56.877178 1126.858765 2091.322998
v -643.122803 1126.858765 2091.322998
v -643.122803 1126.858765 1391.323120
v 56.877178 1126.858765 1391.323120
v 56.877178 1126.858765 2091.322998
v -1.454139 1547.612061 1449.654297
v -1.454139 1547.612061 2032.991821
v -584.791504 1547.612061 2032.991821
v -584.791504 1547.612061 1449.654297
vn -1.0000 0.0000 0.0000
vn 0.0000 0.0000 -1.0000
vn 1.0000 0.0000 0.0000
vn 0.0000 0.0000 1.0000
vn 0.0000 -1.0000 0.0000
vn 0.0000 1.0000 0.0000
usemtl None
s off
f 294//41 302//41 303//41 296//41
f 296//42 303//42 304//42 300//42
f 300//43 304//43 305//43 298//43
f 298//44 305//44 302//44 294//44
f 296//45 300//45 298//45 294//45
f 295//42 299//42 313//42 310//42
f 306//44 307//44 303//44 302//44
f 307//44 308//44 304//44 303//44
f 308//44 309//44 305//44 304//44
f 309//44 306//44 302//44 305//44
f 295//46 297//46 307//46 306//46
f 297//46 301//46 308//46 307//46
f 301//46 299//46 309//46 308//46
f 299//46 295//46 306//46 309//46
f 312//46 311//46 310//46 313//46
f 301//44 297//44 311//44 312//44
f 299//41 301//41 312//41 313//41
f 297//43 295//43 310//43 311//43
o Building.005_Cube.006
v -560.878906 41.284180 3504.897461
v -560.878906 41.284180 2804.897461
v -560.878906 2041.284180 2804.897461
v 139.121094 41.284180 3504.897461
v 139.121094 41.284180 2804.897461
v 139.121094 2041.284180 2804.897461
v -560.878906 41.284180 3313.988281
v -560.878906 2041.284180 3313.988281
v 139.121094 41.284180 3313.988281
v 139.121094 2041.284180 3313.988281
v -560.878906 1032.084229 3504.897461
v -560.878906 1032.084229 2804.897461
v 139.121094 1032.084229 2804.897461
v 139.121094 1032.084229 3504.897461
v 139.121094 1032.084229 3313.988281
v -560.878906 1032.084229 3313.988281
vn -1.0000 0.0000 0.0000
vn 0.0000 0.0000 -1.0000
vn 0.0000 -1.0000 0.0000
vn 0.0000 0.0000 1.0000
vn 0.0000 1.0000 0.0000
vn 1.0000 0.0000 0.0000
usemtl None
s off
f 329//47 321//47 316//47 325//47
f 325//48 316//48 319//48 326//48
f 320//49 322//49 317//49 314//49
f 328//50 323//50 321//50 329//50
f 319//51 316//51 321//51 323//51
f 315//49 318//49 322//49 320//49
f 326//52 319//52 323//52 328//52
f 329//51 324//51 327//51 328//51
f 314//47 324//47 329//47 320//47
f 318//52 326//52 328//52 322//52
f 317//50 327//50 324//50 314//50
f 322//52 328//52 327//52 317//52
f 315//48 325//48 326//48 318//48
f 320//47 329//47 325//47 315//47
o Building.006_Cube.008
v -3041.251953 41.284203 806.134277
v -3041.251953 2041.284058 806.134277
v -3041.251953 41.284203 106.134315
v -3041.251953 2041.284058 106.134315
v -2341.251953 41.284203 806.134277
v -2341.251953 2041.284058 806.134277
v -2341.251953 41.284203 106.134315
v -2341.251953 2041.284058 106.134315
vn -1.0000 0.0000 0.0000
vn 0.0000 0.0000 -1.0000
vn 1.0000 0.0000 0.0000
vn 0.0000 0.0000 1.0000
vn 0.0000 -1.0000 0.0000
vn 0.0000 1.0000 0.0000
usemtl None
s off
f 330//53 331//53 333//53 332//53
f 332//54 333//54 337//54 336//54
f 336//55 337//55 335//55 334//55
f 334//56 335//56 331//56 330//56
f 332//57 336//57 334//57 330//57
f 337//58 333//58 331//58 335//58
o Building.007_Cube.009
v -3041.251953 41.284203 -88.869400
v -3041.251953 1117.741333 -88.869400
v -3041.251953 41.284203 -788.869385
v -3041.251953 1117.741333 -788.869385
v -2341.251953 41.284203 -88.869400
v -2341.251953 1117.741333 -88.869400
v -2341.251953 41.284203 -788.869385
v -2341.251953 1117.741333 -788.869385
vn -1.0000 0.0000 0.0000
vn 0.0000 0.0000 -1.0000
vn 1.0000 0.0000 0.0000
vn 0.0000 0.0000 1.0000
vn 0.0000 -1.0000 0.0000
vn 0.0000 1.0000 0.0000
usemtl None
s off
f 338//59 339//59 341//59 340//59
f 340//60 341//60 345//60 344//60
f 344//61 345//61 343//61 342//61
f 342//62 343//62 339//62 338//62
f 340//63 344//63 342//63 338//63
f 345//64 341//64 339//64 343//64
